<svg width="1000" height="320" viewBox="0 0 1000 320" fill="none" xmlns="http://www.w3.org/2000/svg">
<g clip-path="url(#clip0_2191_59533)">
<rect width="1000" height="320" fill="#434343"/>
<path d="M293.413 89.1255C293.413 98.5768 285.744 106.245 276.282 106.245C266.825 106.245 259.162 98.5768 259.162 89.1255C259.162 79.6638 266.825 71.9954 276.282 71.9954C285.744 71.9954 293.413 79.6641 293.413 89.1255Z" fill="#2C2C2C"/>
<path d="M276.281 33.2929C280.767 33.2929 284.403 29.6566 284.403 25.1709C284.403 20.6852 280.767 17.0488 276.281 17.0488C271.796 17.0488 268.159 20.6852 268.159 25.1709C268.159 29.6566 271.796 33.2929 276.281 33.2929Z" fill="#2C2C2C"/>
<path d="M724.541 304.091C669.278 304.091 624.469 348.9 624.469 404.168C624.469 459.436 669.278 504.24 724.541 504.24C779.815 504.24 824.624 459.436 824.624 404.168C824.624 348.9 779.815 304.091 724.541 304.091ZM724.541 491.635C676.241 491.635 637.074 452.475 637.074 404.168C637.074 355.862 676.241 316.696 724.541 316.696C772.853 316.696 812.008 355.862 812.008 404.168C812.008 452.474 772.853 491.635 724.541 491.635Z" fill="#2C2C2C"/>
<path d="M50.7678 313.542C0.726507 313.542 -39.8525 354.121 -39.8525 404.168C-39.8525 454.215 0.726507 494.784 50.7678 494.784C100.82 494.784 141.394 454.215 141.394 404.168C141.394 354.121 100.82 313.542 50.7678 313.542ZM50.7678 491.635C2.46724 491.635 -36.6992 452.475 -36.6992 404.168C-36.6992 355.862 2.46724 316.696 50.7678 316.696C99.0796 316.696 138.24 355.862 138.24 404.168C138.24 452.474 99.0796 491.635 50.7678 491.635Z" fill="#2C2C2C"/>
<path d="M950.707 313.542C900.665 313.542 860.086 354.121 860.086 404.168C860.086 454.215 900.665 494.784 950.707 494.784C1000.76 494.784 1041.33 454.215 1041.33 404.168C1041.33 354.121 1000.76 313.542 950.707 313.542ZM950.707 491.635C902.406 491.635 863.24 452.475 863.24 404.168C863.24 355.862 902.406 316.696 950.707 316.696C999.018 316.696 1038.17 355.862 1038.17 404.168C1038.17 452.474 999.018 491.635 950.707 491.635Z" fill="#2C2C2C"/>
<path d="M276.151 88.1658C226.104 88.1658 185.524 128.74 185.524 178.787C185.524 228.839 226.104 269.408 276.151 269.408C326.197 269.408 366.772 228.839 366.772 178.787C366.772 128.74 326.197 88.1658 276.151 88.1658ZM276.151 266.254C227.845 266.254 188.678 227.093 188.678 178.787C188.678 130.481 227.845 91.3198 276.151 91.3198C324.457 91.3198 363.618 130.481 363.618 178.787C363.618 227.093 324.457 266.254 276.151 266.254Z" fill="#2C2C2C"/>
<path d="M499.555 -42.2537C449.517 -42.2537 408.942 -1.67931 408.942 48.3673C408.942 98.4189 449.517 138.988 499.555 138.988C549.607 138.988 590.187 98.4186 590.187 48.3673C590.187 -1.67931 549.607 -42.2537 499.555 -42.2537ZM499.555 135.834C451.257 135.834 412.091 96.6785 412.091 48.367C412.091 0.0604843 451.257 -39.1003 499.555 -39.1003C547.867 -39.1003 587.033 0.0604843 587.033 48.367C587.033 96.6785 547.867 135.834 499.555 135.834Z" fill="#2C2C2C"/>
<path d="M499.555 310.789C449.517 310.789 408.942 351.363 408.942 401.41C408.942 451.462 449.517 492.036 499.555 492.036C549.607 492.036 590.187 451.462 590.187 401.41C590.187 351.363 549.607 310.789 499.555 310.789ZM499.555 488.877C451.257 488.877 412.091 449.721 412.091 401.41C412.091 353.104 451.257 313.943 499.555 313.943C547.867 313.943 587.033 353.104 587.033 401.41C587.033 449.721 547.867 488.877 499.555 488.877Z" fill="#2C2C2C"/>
<path d="M275.364 304.091C220.09 304.091 175.286 348.9 175.286 404.168C175.286 459.436 220.09 504.24 275.364 504.24C330.637 504.24 375.441 459.436 375.441 404.168C375.441 348.9 330.637 304.091 275.364 304.091ZM275.364 491.635C227.052 491.635 187.897 452.475 187.897 404.168C187.897 355.862 227.052 316.696 275.364 316.696C323.675 316.696 362.831 355.862 362.831 404.168C362.83 452.474 323.675 491.635 275.364 491.635Z" fill="#2C2C2C"/>
<path d="M67.2235 179.578C67.2235 188.66 59.8557 196.028 50.7681 196.028C41.6861 196.028 34.3232 188.66 34.3232 179.578C34.3232 170.491 41.6861 163.122 50.7681 163.122C59.8557 163.122 67.2235 170.491 67.2235 179.578Z" fill="#2C2C2C"/>
<path d="M523.499 179.578C523.499 192.573 512.951 203.121 499.955 203.121C486.949 203.121 476.414 192.573 476.414 179.578C476.414 166.572 486.949 156.034 499.955 156.034C512.951 156.034 523.499 166.572 523.499 179.578Z" fill="#2C2C2C"/>
<path d="M511.348 98.0811C511.348 104.368 506.243 109.474 499.956 109.474C493.659 109.474 488.564 104.368 488.564 98.0811C488.564 91.7947 493.659 86.6892 499.956 86.6892C506.243 86.6892 511.348 91.7947 511.348 98.0811Z" fill="#2C2C2C"/>
<path d="M503.248 48.1241C503.248 49.9388 501.771 51.4154 499.957 51.4154C498.132 51.4154 496.666 49.9388 496.666 48.1241C496.666 46.31 498.132 44.8334 499.957 44.8334C501.771 44.8334 503.248 46.31 503.248 48.1241Z" fill="#2C2C2C"/>
<path d="M503.248 252.309C503.248 254.128 501.771 255.6 499.957 255.6C498.132 255.6 496.666 254.128 496.666 252.309C496.666 250.494 498.132 249.018 499.957 249.018C501.771 249.018 503.248 250.494 503.248 252.309Z" fill="#2C2C2C"/>
<path d="M503.248 6.85922C503.248 8.67331 501.771 10.1505 499.957 10.1505C498.132 10.1505 496.666 8.67331 496.666 6.85922C496.666 5.04513 498.132 3.56787 499.957 3.56787C501.771 3.56787 503.248 5.04513 503.248 6.85922Z" fill="#2C2C2C"/>
<path d="M279.826 246.602C279.826 248.417 278.36 249.893 276.534 249.893C274.72 249.893 273.243 248.417 273.243 246.602C273.243 244.788 274.72 243.311 276.534 243.311C278.36 243.311 279.826 244.788 279.826 246.602Z" fill="#2C2C2C"/>
<path d="M614.668 164.24C614.668 166.055 613.202 167.532 611.377 167.532C609.563 167.532 608.086 166.055 608.086 164.24C608.086 162.426 609.563 160.949 611.377 160.949C613.202 160.949 614.668 162.426 614.668 164.24Z" fill="#2C2C2C"/>
<path d="M614.668 142.637C614.668 144.452 613.202 145.928 611.377 145.928C609.563 145.928 608.086 144.452 608.086 142.637C608.086 140.823 609.563 139.347 611.377 139.347C613.202 139.347 614.668 140.823 614.668 142.637Z" fill="#2C2C2C"/>
<path d="M614.668 121.034C614.668 122.849 613.202 124.326 611.377 124.326C609.563 124.326 608.086 122.849 608.086 121.034C608.086 119.22 609.563 117.744 611.377 117.744C613.202 117.744 614.668 119.22 614.668 121.034Z" fill="#2C2C2C"/>
<path d="M614.668 99.4312C614.668 101.246 613.202 102.723 611.377 102.723C609.563 102.723 608.086 101.246 608.086 99.4312C608.086 97.6171 609.563 96.1405 611.377 96.1405C613.202 96.1405 614.668 97.6171 614.668 99.4312Z" fill="#2C2C2C"/>
<path d="M748.085 179.578C748.085 192.573 737.546 203.121 724.54 203.121C711.545 203.121 700.996 192.573 700.996 179.578C700.996 166.572 711.545 156.034 724.54 156.034C737.546 156.034 748.085 166.572 748.085 179.578Z" fill="#2C2C2C"/>
<path d="M973.861 179.578C973.861 192.573 963.323 203.121 950.317 203.121C937.311 203.121 926.773 192.573 926.773 179.578C926.773 166.572 937.311 156.034 950.317 156.034C963.323 156.034 973.861 166.572 973.861 179.578Z" fill="#2C2C2C"/>
<path d="M836.722 68.5138C838.289 68.5138 839.56 67.2435 839.56 65.6764C839.56 64.1093 838.289 62.839 836.722 62.839C835.155 62.839 833.885 64.1093 833.885 65.6764C833.885 67.2435 835.155 68.5138 836.722 68.5138Z" fill="#2C2C2C"/>
<path d="M864.636 68.5138C866.203 68.5138 867.474 67.2435 867.474 65.6764C867.474 64.1093 866.203 62.839 864.636 62.839C863.069 62.839 861.799 64.1093 861.799 65.6764C861.799 67.2435 863.069 68.5138 864.636 68.5138Z" fill="#2C2C2C"/>
<path d="M892.535 68.5138C894.102 68.5138 895.372 67.2435 895.372 65.6764C895.372 64.1093 894.102 62.839 892.535 62.839C890.968 62.839 889.697 64.1093 889.697 65.6764C889.697 67.2435 890.968 68.5138 892.535 68.5138Z" fill="#2C2C2C"/>
<path d="M923.282 65.6764C923.282 67.2433 922.006 68.5138 920.445 68.5138C918.873 68.5138 917.607 67.2429 917.607 65.6764C917.607 64.1102 918.873 62.839 920.445 62.839C922.006 62.839 923.282 64.1102 923.282 65.6764Z" fill="#2C2C2C"/>
<path d="M948.345 68.5138C949.912 68.5138 951.183 67.2435 951.183 65.6764C951.183 64.1093 949.912 62.839 948.345 62.839C946.778 62.839 945.508 64.1093 945.508 65.6764C945.508 67.2435 946.778 68.5138 948.345 68.5138Z" fill="#2C2C2C"/>
<path d="M979.094 65.6764C979.094 67.2433 977.818 68.5138 976.257 68.5138C974.685 68.5138 973.42 67.2429 973.42 65.6764C973.42 64.1102 974.685 62.839 976.257 62.839C977.818 62.839 979.094 64.1102 979.094 65.6764Z" fill="#2C2C2C"/>
<path d="M854.634 50.6029C856.201 50.6029 857.472 49.3326 857.472 47.7655C857.472 46.1985 856.201 44.9281 854.634 44.9281C853.067 44.9281 851.797 46.1985 851.797 47.7655C851.797 49.3326 853.067 50.6029 854.634 50.6029Z" fill="#2C2C2C"/>
<path d="M882.546 50.6029C884.114 50.6029 885.384 49.3326 885.384 47.7655C885.384 46.1985 884.114 44.9281 882.546 44.9281C880.979 44.9281 879.709 46.1985 879.709 47.7655C879.709 49.3326 880.979 50.6029 882.546 50.6029Z" fill="#2C2C2C"/>
<path d="M910.445 50.6029C912.012 50.6029 913.282 49.3326 913.282 47.7655C913.282 46.1985 912.012 44.9281 910.445 44.9281C908.878 44.9281 907.607 46.1985 907.607 47.7655C907.607 49.3326 908.878 50.6029 910.445 50.6029Z" fill="#2C2C2C"/>
<path d="M938.357 50.6029C939.924 50.6029 941.194 49.3326 941.194 47.7655C941.194 46.1985 939.924 44.9281 938.357 44.9281C936.79 44.9281 935.52 46.1985 935.52 47.7655C935.52 49.3326 936.79 50.6029 938.357 50.6029Z" fill="#2C2C2C"/>
<path d="M966.259 50.6029C967.826 50.6029 969.097 49.3326 969.097 47.7655C969.097 46.1985 967.826 44.9281 966.259 44.9281C964.692 44.9281 963.422 46.1985 963.422 47.7655C963.422 49.3326 964.692 50.6029 966.259 50.6029Z" fill="#2C2C2C"/>
<path d="M818.191 310.293C819.758 310.293 821.028 309.023 821.028 307.456C821.028 305.889 819.758 304.618 818.191 304.618C816.624 304.618 815.354 305.889 815.354 307.456C815.354 309.023 816.624 310.293 818.191 310.293Z" fill="#2C2C2C"/>
<path d="M179.459 310.293C181.026 310.293 182.296 309.023 182.296 307.456C182.296 305.889 181.026 304.618 179.459 304.618C177.891 304.618 176.621 305.889 176.621 307.456C176.621 309.023 177.891 310.293 179.459 310.293Z" fill="#2C2C2C"/>
<path d="M128.055 253.975C128.416 252.45 127.473 250.921 125.948 250.56C124.424 250.198 122.895 251.141 122.533 252.666C122.172 254.191 123.115 255.72 124.64 256.081C126.164 256.443 127.693 255.499 128.055 253.975Z" fill="#2C2C2C"/>
<path d="M872.544 32.692C874.112 32.692 875.382 31.4216 875.382 29.8546C875.382 28.2875 874.112 27.0171 872.544 27.0171C870.977 27.0171 869.707 28.2875 869.707 29.8546C869.707 31.4216 870.977 32.692 872.544 32.692Z" fill="#2C2C2C"/>
<path d="M956.269 32.692C957.836 32.692 959.106 31.4216 959.106 29.8546C959.106 28.2875 957.836 27.0171 956.269 27.0171C954.702 27.0171 953.432 28.2875 953.432 29.8546C953.432 31.4216 954.702 32.692 956.269 32.692Z" fill="#2C2C2C"/>
<path d="M984.167 32.692C985.735 32.692 987.005 31.4216 987.005 29.8546C987.005 28.2875 985.735 27.0171 984.167 27.0171C982.6 27.0171 981.33 28.2875 981.33 29.8546C981.33 31.4216 982.6 32.692 984.167 32.692Z" fill="#2C2C2C"/>
<path d="M973.03 296.679C976.357 284.109 968.865 271.221 956.294 267.894C943.724 264.566 930.837 272.059 927.509 284.629C924.182 297.199 931.674 310.087 944.245 313.414C956.815 316.742 969.702 309.249 973.03 296.679Z" fill="#2C2C2C"/>
<path d="M624.777 291.886C624.777 297.93 619.872 302.825 613.828 302.825C607.783 302.825 602.889 297.93 602.889 291.886C602.889 285.842 607.783 280.937 613.828 280.937C619.872 280.937 624.777 285.842 624.777 291.886Z" fill="#2C2C2C"/>
<path d="M51.4728 225.315C76.3933 225.315 96.6721 205.041 96.6721 180.116C96.6721 155.201 76.3933 134.916 51.4728 134.916C26.5522 134.916 6.27344 155.201 6.27344 180.116C6.27344 205.042 26.5522 225.315 51.4728 225.315ZM51.4728 135.813C75.9026 135.813 95.7811 155.686 95.7811 180.116C95.7811 204.546 75.9026 224.424 51.4728 224.424C27.0429 224.424 7.16441 204.546 7.16441 180.116C7.16441 155.686 27.0429 135.813 51.4728 135.813Z" fill="#986F3B"/>
<path d="M51.4739 236.059C82.3225 236.059 107.412 210.959 107.412 180.116C107.412 149.272 82.3225 124.173 51.4739 124.173C20.6253 124.173 -4.46387 149.272 -4.46387 180.116C-4.46387 210.959 20.6253 236.059 51.4739 236.059ZM51.4739 125.064C81.8268 125.064 106.526 149.758 106.526 180.116C106.526 210.474 81.8268 235.167 51.4739 235.167C21.121 235.167 -3.57821 210.474 -3.57821 180.116C-3.57821 149.757 21.1213 125.064 51.4739 125.064Z" fill="#986F3B"/>
<path d="M275.79 226.655C301.449 226.655 322.324 205.78 322.324 180.116C322.324 154.457 301.449 133.586 275.79 133.586C250.131 133.586 229.256 154.456 229.256 180.116C229.256 205.78 250.131 226.655 275.79 226.655Z" fill="#986F3B"/>
<path d="M500.104 227.098C526 227.098 547.086 206.023 547.086 180.116C547.086 154.209 526 133.139 500.104 133.139C474.2 133.139 453.124 154.209 453.124 180.116C453.124 206.023 474.2 227.098 500.104 227.098ZM500.104 137.59C523.553 137.59 542.635 156.667 542.635 180.116C542.635 203.565 523.553 222.647 500.104 222.647C476.658 222.647 457.576 203.565 457.576 180.116C457.576 156.666 476.658 137.59 500.104 137.59Z" fill="#986F3B"/>
<path d="M1061.2 65.5344C1061.03 65.3599 1060.75 65.3599 1060.57 65.5344L979.242 146.867C974.432 142.447 968.694 139.03 962.323 137.015L1033.17 66.1672C1033.33 65.9927 1033.33 65.7083 1033.17 65.5341C1033 65.3596 1032.71 65.3596 1032.53 65.5341L961.331 136.74C957.323 135.58 953.103 134.915 948.736 134.915C943.484 134.915 938.462 135.865 933.779 137.516L1005.13 66.1669C1005.3 65.9924 1005.3 65.708 1005.13 65.5338C1004.95 65.3593 1004.67 65.3593 1004.5 65.5338L931.786 138.249C920.478 142.842 911.459 151.861 906.871 163.164L854.371 215.658C849.087 211.961 843.622 208.49 838.011 205.241L977.091 66.1669C977.26 65.9924 977.26 65.708 977.091 65.5338C976.912 65.3593 976.627 65.3593 976.458 65.5338L837.916 204.081V180.115C837.916 179.377 837.315 178.78 836.576 178.78C836.513 178.78 836.46 178.807 836.397 178.817L949.053 66.1666C949.222 65.9921 949.222 65.7077 949.053 65.5335C948.874 65.359 948.589 65.359 948.42 65.5335L818.687 195.262C812.474 192.425 806.113 189.845 799.615 187.562L921.016 66.1663C921.185 65.9917 921.185 65.7074 921.016 65.5332C920.837 65.3587 920.552 65.3587 920.383 65.5332L798.665 187.245C791.904 184.904 785.005 182.868 777.969 181.164L892.968 66.1663C893.147 65.9917 893.147 65.7074 892.968 65.5332C892.799 65.3587 892.514 65.3587 892.335 65.5332L776.946 180.927C774.499 180.347 772.052 179.756 769.573 179.255C769.478 174.028 768.465 169.023 766.736 164.371L864.93 66.166C865.11 65.9914 865.11 65.7071 864.93 65.5329C864.761 65.3584 864.477 65.3584 864.297 65.5329L766.388 163.448C763.961 157.351 760.248 151.929 755.586 147.467L836.893 66.166C837.072 65.9914 837.072 65.7071 836.893 65.5329C836.723 65.3584 836.439 65.3584 836.26 65.5329L754.932 146.865C746.873 139.477 736.187 134.914 724.425 134.914C699.785 134.914 679.732 154.735 679.268 179.254C655.535 184.049 633.15 192.593 612.698 204.164V180.114C612.698 179.866 612.508 179.671 612.255 179.671C612.012 179.671 611.812 179.866 611.812 180.114V204.676C576.738 224.744 547.499 253.847 527.288 288.825H390.172V194.207C397.018 193.131 402.266 187.261 402.266 180.114C402.266 172.202 395.857 165.795 387.946 165.795C380.034 165.795 373.627 172.202 373.627 180.114C373.627 187.26 378.874 193.131 385.721 194.207V288.825H177.818C177.148 281.705 171.325 276.115 164.079 275.893V194.386C171.779 194.149 177.95 187.867 177.95 180.114C177.95 172.202 171.542 165.795 163.636 165.795C155.724 165.795 149.31 172.202 149.31 180.114C149.31 187.867 155.487 194.149 163.187 194.386V275.893C155.946 276.115 150.112 281.705 149.443 288.825H48.6528C47.9098 288.825 47.3189 289.427 47.3189 290.165C47.3189 290.904 47.9098 291.499 48.6528 291.499H149.443C150.112 298.625 155.946 304.215 163.187 304.437V514.033H62.9302C62.6876 506.338 56.4062 500.161 48.6528 500.161C40.7418 500.161 34.334 506.575 34.334 514.481C34.334 522.387 40.7418 528.8 48.6528 528.8C56.4062 528.8 62.6879 522.619 62.9302 514.924H163.187V624.532C163.187 624.78 163.388 624.98 163.636 624.98C163.878 624.98 164.079 624.78 164.079 624.532V514.924H385.721V610.439C378.875 611.515 373.627 617.38 373.627 624.532C373.627 632.433 380.034 638.846 387.946 638.846C395.857 638.846 402.266 632.433 402.266 624.532C402.266 617.38 397.018 611.515 390.172 610.439V514.924H526.781C547.002 550.298 576.442 579.738 611.811 599.97V624.532C611.811 624.78 612.012 624.98 612.254 624.98C612.507 624.98 612.697 624.78 612.697 624.532V600.481C633.15 612.053 655.534 620.598 679.268 625.386C679.731 649.906 699.784 669.726 724.425 669.726C749.045 669.726 769.108 649.906 769.572 625.386C792.958 620.666 815.035 612.312 835.235 600.994V624.532C835.235 625.27 835.837 625.866 836.576 625.866C837.314 625.866 837.915 625.27 837.915 624.532V599.459C872.893 579.243 902.007 550.003 922.07 514.924H937.281C937.524 522.619 943.8 528.8 951.553 528.8C959.464 528.8 965.867 522.387 965.867 514.481C965.867 506.575 959.464 500.161 951.553 500.161C943.8 500.161 937.524 506.338 937.281 514.033H922.576C933.599 494.565 941.827 473.337 946.732 450.864C947.397 450.89 948.061 450.964 948.736 450.964C974.39 450.964 995.265 430.089 995.265 404.425C995.265 378.771 974.39 357.896 948.736 357.896C948.356 357.896 947.998 357.943 947.618 357.949C942.924 334.278 934.528 311.926 923.093 291.499H937.376C938.051 298.772 944.106 304.49 951.553 304.49C959.465 304.49 965.867 298.076 965.867 290.165C965.867 282.259 959.465 275.84 951.553 275.84C944.106 275.84 938.051 281.557 937.376 288.825H921.553C911.606 271.616 899.518 255.787 885.583 241.795L916.089 211.284C924.327 219.907 935.899 225.313 948.736 225.313C973.651 225.313 993.936 205.039 993.936 180.114C993.936 167.282 988.525 155.705 979.907 147.467L1061.2 66.1653C1061.37 65.993 1061.37 65.7083 1061.2 65.5344ZM978.619 147.495L916.11 209.994C911.691 205.173 908.304 199.398 906.342 192.985L961.605 137.732C968.019 139.684 973.788 143.075 978.619 147.495ZM948.736 135.813C952.85 135.813 956.816 136.414 960.603 137.474L906.089 191.983C905.034 188.196 904.422 184.23 904.422 180.116C904.422 174.304 905.582 168.756 907.629 163.666L932.281 139.014C937.375 136.962 942.913 135.813 948.736 135.813ZM930.013 140.022L908.642 161.393C913.041 152.004 920.625 144.42 930.013 140.022ZM906.132 165.158C904.486 169.847 903.536 174.868 903.536 180.116C903.536 184.493 904.201 188.702 905.361 192.71L870.277 227.794C865.394 223.712 860.33 219.851 855.109 216.18L906.132 165.158ZM738.328 514.034C787.336 507.969 826.65 470.322 835.236 422.132V500.3C828.116 500.971 822.525 506.793 822.304 514.034H738.328ZM626.895 514.034C626.652 506.366 620.418 500.216 612.697 500.169V416.209C619.005 467.2 659.521 507.722 710.512 514.034H626.895ZM527.287 514.034C516.211 494.567 507.931 473.318 503.005 450.818C527.308 449.305 546.633 429.11 546.633 404.427C546.633 391.226 541.084 379.316 532.213 370.84L611.558 291.501H611.811V500.242C604.438 500.664 598.573 506.614 598.341 514.034H527.287ZM332.947 514.034L385.721 461.261V488.038L359.719 514.034L332.947 514.034ZM304.91 514.034L385.721 433.223V459.995L331.681 514.034H304.91ZM276.867 514.034L385.721 405.18V431.957L303.644 514.034L276.867 514.034ZM248.824 514.034L292.421 470.443C316.64 464.341 335.695 445.28 341.808 421.061L385.721 377.138V403.92L275.607 514.034L248.824 514.034ZM220.786 514.034L263.423 471.404C267.442 472.147 271.561 472.585 275.791 472.585C280.923 472.585 285.901 471.968 290.717 470.887L247.563 514.034H220.786ZM192.749 514.034L242.78 464.003C248.803 467.358 255.364 469.837 262.325 471.229L219.526 514.034H192.749ZM164.711 514.034L226.921 451.826C231.356 456.398 236.43 460.343 241.994 463.529L191.483 514.034H164.711ZM442.059 291.501L390.172 343.388V316.612L415.282 291.501H442.059ZM470.097 291.501L390.172 371.426V344.649L443.319 291.501H470.097ZM498.131 291.501L390.172 399.468V372.686L471.362 291.501L498.131 291.501ZM291.956 469.647C286.766 470.934 281.371 471.693 275.791 471.693C271.83 471.693 267.98 471.282 264.204 470.622L285.3 449.521C303.096 445.765 317.13 431.736 320.88 413.941L341.981 392.845C342.641 396.615 343.052 400.471 343.052 404.427C343.052 410.012 342.293 415.408 341.006 420.597L291.956 469.647ZM340.563 422.296C334.286 445.027 316.386 462.928 293.654 469.209L340.563 422.296ZM305.701 373.04C310.384 377.507 314.05 382.992 316.375 389.142L260.506 445.017C254.351 442.696 248.861 439.025 244.404 434.341L305.701 373.04ZM243.803 433.688C236.731 425.956 232.379 415.703 232.379 404.427C232.379 380.492 251.851 361.015 275.791 361.015C287.062 361.015 297.315 365.366 305.041 372.444L243.803 433.688ZM316.718 390.07C318.301 394.569 319.208 399.39 319.208 404.427C319.208 408.424 318.623 412.274 317.61 415.956L287.315 446.251C283.639 447.258 279.783 447.849 275.791 447.849C270.754 447.849 265.933 446.942 261.429 445.354L316.718 390.07ZM318.796 387.992L334.719 372.064C338.058 378.119 340.468 384.743 341.807 391.747L321.133 412.423C321.597 409.822 321.882 407.158 321.882 404.427C321.882 398.635 320.759 393.103 318.796 387.992ZM317.114 417.712C312.837 430.982 302.346 441.477 289.076 445.755L317.114 417.712ZM275.791 450.522C278.522 450.522 281.181 450.232 283.781 449.779L263.107 470.459C256.102 469.114 249.478 466.699 243.423 463.36L259.351 447.432C264.467 449.394 269.994 450.522 275.791 450.522ZM343.939 404.427C343.939 400.197 343.501 396.083 342.757 392.064L385.721 349.1V375.883L342.24 419.363C343.321 414.548 343.939 409.564 343.939 404.427ZM385.721 347.839L342.594 390.967C341.196 384.005 338.717 377.444 335.363 371.421L385.721 321.063L385.721 347.839ZM334.888 370.635C331.692 365.071 327.757 359.996 323.185 355.561L385.72 293.02V319.802L334.888 370.635ZM334.244 371.284L318.453 387.064C315.98 381.009 312.251 375.608 307.589 371.152L322.557 356.189C327.135 360.624 331.069 365.704 334.244 371.284ZM306.93 370.556C298.718 363.003 287.8 358.341 275.791 358.341C250.38 358.341 229.705 379.016 229.705 404.427C229.705 416.441 234.362 427.359 241.915 435.576L226.946 450.539C215.565 438.482 208.529 422.28 208.529 404.427C208.529 367.339 238.703 337.171 275.791 337.171C293.639 337.171 309.841 344.207 321.892 355.588L306.93 370.556ZM242.516 436.23C246.968 440.892 252.368 444.626 258.428 447.094L242.642 462.885C237.062 459.71 231.988 455.776 227.548 451.197L242.516 436.23ZM527.435 291.501H554.217L506.824 338.889C511.528 322.809 517.921 307.456 525.874 293.062L527.435 291.501ZM680.112 180.01C694.447 177.152 709.257 175.633 724.425 175.633C724.985 175.633 725.554 175.67 726.124 175.675L691.799 209.999C684.563 202.109 680.112 191.635 680.112 180.116C680.112 180.084 680.112 180.042 680.112 180.01ZM727.358 175.707C735.828 175.818 744.182 176.403 752.41 177.426L708.445 221.392C702.316 219.018 696.852 215.326 692.4 210.659L727.358 175.707ZM768.729 180.116C768.729 183.66 768.254 187.099 767.473 190.401L734.7 223.174C731.398 223.965 727.959 224.424 724.425 224.424C719.131 224.424 714.078 223.448 709.363 221.739L753.528 177.563C758.644 178.228 763.718 179.013 768.718 180.01C768.718 180.042 768.729 180.084 768.729 180.116ZM767.03 192.104C762.864 206.903 751.197 218.564 736.398 222.731L767.03 192.104ZM704.605 291.501C656.42 300.093 618.763 339.427 612.697 388.435V291.501H704.605ZM809.244 288.827H782.462L835.235 236.053V262.83L809.244 288.827ZM835.236 264.091V288.827H810.5L835.236 264.091ZM781.207 288.827H754.425L835.235 208.016V234.788L781.207 288.827ZM835.236 206.75L753.159 288.827H726.387L818.886 196.334C824.467 198.902 829.919 201.677 835.236 204.677V206.75ZM642.264 288.827L708.666 222.43C713.582 224.26 718.866 225.315 724.425 225.315C727.516 225.315 730.543 224.999 733.476 224.398L669.046 288.827L642.264 288.827ZM707.748 222.088L641.009 288.827H614.226L691.768 211.286C696.229 215.954 701.651 219.661 707.748 222.088ZM500.104 357.898C495.632 357.898 491.328 358.568 487.225 359.749L505.03 341.944C503.575 347.212 502.288 352.539 501.212 357.95C500.843 357.945 500.484 357.898 500.104 357.898ZM514.724 360.287L583.51 291.501H610.292L531.559 370.239C526.76 365.819 521.053 362.391 514.724 360.287ZM513.796 359.965C510.072 358.815 506.159 358.172 502.119 358.003C503.279 352.128 504.714 346.353 506.328 340.651L555.483 291.501H582.255L513.796 359.965ZM505.536 340.182L485.4 360.319C471.563 364.944 460.614 375.893 455.994 389.727L390.172 455.544V428.772L523.658 295.283C516.085 309.423 510.009 324.459 505.536 340.182ZM390.172 456.809L455.424 391.557C454.242 395.65 453.573 399.959 453.573 404.426C453.573 409.194 454.295 413.793 455.635 418.123L390.172 483.587V456.809ZM455.962 419.057C458.061 425.381 461.495 431.082 465.909 435.887L390.172 511.624V484.847L455.962 419.057ZM612.708 402.322C612.708 345.419 655.481 298.352 710.554 291.501H738.275C788.812 297.783 828.96 337.93 835.236 388.467V416.182C828.39 471.261 781.323 514.034 724.425 514.034C662.823 514.034 612.708 463.924 612.708 402.322ZM835.236 382.512C826.998 336.279 790.469 299.745 744.225 291.501H835.236V382.512ZM837.915 261.423L870.32 229.007C875.162 233.09 879.834 237.335 884.317 241.792L837.915 288.2V261.423ZM837.915 260.157V233.385L854.476 216.819C859.698 220.485 864.771 224.34 869.645 228.427L837.915 260.157ZM837.915 232.119V206.213C843.337 209.367 848.611 212.721 853.738 216.291L837.915 232.119ZM835.278 179.936C835.268 180 835.236 180.053 835.236 180.116V203.649C830.131 200.79 824.899 198.127 819.551 195.659L835.278 179.936ZM818.021 195.938L725.132 288.827H698.35L798.908 188.269C805.416 190.538 811.787 193.106 818.021 195.938ZM797.968 187.948L697.084 288.827H670.302L735.174 223.965C751.461 219.973 764.277 207.156 768.264 190.87L777.23 181.909C784.277 183.597 791.196 185.612 797.968 187.948ZM768.708 189.171C769.298 186.26 769.604 183.249 769.615 180.168C771.83 180.622 774.013 181.16 776.197 181.672L768.708 189.171ZM768.676 179.098C763.95 178.165 759.15 177.405 754.33 176.772L766.028 165.064C767.631 169.462 768.56 174.177 768.676 179.098ZM765.701 164.135L753.201 176.624C745.005 175.591 736.672 174.979 728.223 174.841L754.963 148.101C759.636 152.553 763.317 158.017 765.701 164.135ZM724.425 135.813C735.934 135.813 746.408 140.264 754.299 147.495L726.989 174.81C726.134 174.799 725.28 174.741 724.425 174.741C709.278 174.741 694.489 176.266 680.164 179.098C680.713 155.143 700.333 135.813 724.425 135.813ZM679.226 180.168C679.236 191.909 683.782 202.589 691.166 210.627L612.972 288.827H612.697V205.189C633.129 193.576 655.492 184.989 679.226 180.168ZM611.811 205.706V288.827H528.31C548.352 254.334 577.212 225.6 611.811 205.706ZM525.167 292.508L390.172 427.506V400.729L499.397 291.501H525.747C525.557 291.839 525.357 292.171 525.167 292.508ZM414.022 291.501L390.172 315.346V291.501H414.022ZM385.721 291.76L322.525 354.96C310.31 343.415 293.887 336.278 275.791 336.278C238.213 336.278 207.643 366.853 207.643 404.426C207.643 422.522 214.774 438.951 226.319 451.166L164.078 513.401V304.438C171.325 304.217 177.147 298.626 177.818 291.501H385.72L385.721 291.76ZM360.979 514.034L385.721 489.298V514.034H360.979ZM390.172 514.034V512.885L466.51 436.547C474.991 445.413 486.898 450.966 500.104 450.966C500.779 450.966 501.433 450.892 502.108 450.866C507.013 473.339 515.241 494.567 526.264 514.034H390.172ZM527.804 514.925H598.341C598.573 522.352 604.438 528.301 611.812 528.718V598.943C576.917 578.88 547.857 549.82 527.804 514.925ZM724.425 668.842C700.333 668.842 680.713 649.507 680.164 625.552C690.238 627.546 700.533 628.869 711.039 629.481C713.044 634.94 718.265 638.848 724.425 638.848C730.575 638.848 735.786 634.94 737.812 629.481C748.307 628.869 758.602 627.546 768.676 625.552C768.127 649.507 748.507 668.842 724.425 668.842ZM680.112 624.534C680.112 600.099 699.984 580.226 724.425 580.226C748.856 580.226 768.729 600.099 768.729 624.534C768.729 624.571 768.718 624.603 768.718 624.645C758.729 626.628 748.507 627.946 738.096 628.568C738.476 627.282 738.739 625.947 738.739 624.534C738.739 616.622 732.326 610.214 724.425 610.214C716.514 610.214 710.101 616.622 710.101 624.534C710.101 625.948 710.364 627.282 710.744 628.568C700.333 627.941 690.112 626.628 680.112 624.645C680.112 624.602 680.112 624.57 680.112 624.534ZM769.615 624.481C769.583 599.582 749.33 579.334 724.425 579.334C699.511 579.334 679.258 599.582 679.226 624.481C655.492 619.66 633.129 611.074 612.697 599.455V528.791C620.419 528.749 626.653 522.595 626.895 514.925H822.304C822.525 522.167 828.116 528 835.236 528.665V599.972C815.057 611.332 792.989 619.729 769.615 624.481ZM837.915 598.432V528.665C845.035 528 850.626 522.167 850.847 514.925H921.036C901.142 549.524 872.408 578.384 837.915 598.432ZM946.732 358.003C922.007 359.058 902.197 379.448 902.197 404.427C902.197 429.11 921.522 449.305 945.835 450.818C940.909 473.318 932.629 494.567 921.553 514.034H850.848C850.626 506.793 845.036 500.971 837.915 500.3V291.501H922.07C933.567 311.933 942.017 334.301 946.732 358.003ZM920.53 288.827H838.537L884.95 242.425C898.716 256.249 910.667 271.855 920.53 288.827ZM884.95 241.165C880.467 236.708 875.784 232.457 870.953 228.385L905.636 193.702C907.65 200.073 911.068 205.812 915.488 210.622L884.95 241.165ZM993.039 180.116C993.039 204.546 973.166 224.424 948.736 224.424C936.141 224.424 924.791 219.123 916.711 210.659L979.273 148.101C987.733 156.171 993.039 167.526 993.039 180.116Z" fill="#986F3B"/>
<path d="M500.102 194.43C508.013 194.43 514.427 188.027 514.427 180.116C514.427 172.204 508.013 165.797 500.102 165.797C492.191 165.797 485.777 172.204 485.777 180.116C485.777 188.027 492.191 194.43 500.102 194.43Z" fill="#986F3B"/>
</g>
<defs>
<clipPath id="clip0_2191_59533">
<rect width="1000" height="320" fill="white"/>
</clipPath>
</defs>
</svg>
