<svg width="1000" height="320" viewBox="0 0 1000 320" fill="none" xmlns="http://www.w3.org/2000/svg">
<g clip-path="url(#clip0_2191_58917)">
<rect width="1000" height="320" fill="#585858"/>
<path d="M231.235 -83.0588V-37.2943H322.764V8.47027H414.294V-37.2943H460.059V8.47027L505.823 -37.2943V-83.0588H231.235Z" fill="#60594C"/>
<path d="M48.1768 8.47021H93.9413V100H139.706V145.765H48.1768V8.47021Z" fill="#60594C"/>
<path d="M505.823 271.618L494.382 283.059H505.823V328.823H414.294C389.023 328.823 368.529 308.329 368.529 283.059H460.058V100H505.823V271.618Z" fill="#60594C"/>
<path d="M277 100H185.471V145.765H277V100Z" fill="#60594C"/>
<path d="M414.294 100H322.765V145.765H414.294V100Z" fill="#60594C"/>
<path d="M322.765 283.059H139.706V328.823H322.765V283.059Z" fill="#60594C"/>
<path d="M185.471 -37.2943H322.765V8.47025H414.295V100H368.53V54.2355H277V100H231.236V8.47025H185.471V-37.2943Z" fill="#464646"/>
<path d="M139.706 -37.2943V8.47025H48.1767V100H2.41211V-37.2943H139.706Z" fill="#464646"/>
<path d="M93.9414 54.2355H185.471V237.294H231.236V283.059H139.706V100H93.9414V54.2355Z" fill="#464646"/>
<path d="M277 237.294H368.53V145.765H414.294V283.059H277V237.294Z" fill="#464646"/>
<path d="M277 145.765H185.471V191.529H277V145.765Z" fill="#353535"/>
<path d="M93.9413 191.53H139.706V145.765H48.1768L93.9413 191.53Z" fill="#353535"/>
<path d="M277 237.294H231.235V283.059H277V237.294Z" fill="#353535"/>
<path d="M368.529 145.765H322.765V237.294H368.529V145.765Z" fill="#353535"/>
<path d="M368.529 145.765H345.646V168.647H368.529V145.765Z" fill="#353535"/>
<path d="M460.059 100H414.294V191.529H460.059V100Z" fill="#353535"/>
<path d="M460.059 -37.2943H414.294V54.2348H460.059V-37.2943Z" fill="#353535"/>
<path d="M231.235 328.823H322.764V283.059H368.53V374.588H277L231.235 328.823Z" fill="#353535"/>
<path d="M93.9414 8.47025H139.706V-37.2943H185.471V54.2354H93.9414V8.47025Z" fill="#353535"/>
<path d="M231.235 8.47021H185.471V99.9993H231.235V8.47021Z" fill="#423D46"/>
<path d="M460.059 191.53H414.294V237.294H460.059V191.53Z" fill="#423D46"/>
<path d="M368.53 54.2355V100H322.765V237.294H185.471V191.53H277V54.2355H368.53Z" fill="#423D46"/>
<path d="M414.294 54.2355V100H505.823V237.294L551.588 191.53V54.2355H414.294Z" fill="#423D46"/>
<path d="M322.185 15.8025C326.234 -9.14653 309.291 -32.6541 284.342 -36.7032C259.393 -40.7523 235.885 -23.8095 231.836 1.13952C227.787 26.0885 244.73 49.5961 269.679 53.6452C294.628 57.6943 318.136 40.7515 322.185 15.8025Z" fill="#353535"/>
<path d="M437.176 283.059C449.814 283.059 460.059 272.814 460.059 260.177C460.059 247.539 449.814 237.294 437.176 237.294C424.539 237.294 414.294 247.539 414.294 260.177C414.294 272.814 424.539 283.059 437.176 283.059Z" fill="#423D46"/>
<path d="M299.882 145.765C312.52 145.765 322.765 135.52 322.765 122.882C322.765 110.245 312.52 100 299.882 100C287.245 100 277 110.245 277 122.882C277 135.52 287.245 145.765 299.882 145.765Z" fill="#60594C"/>
<path d="M139.706 328.823L93.9412 283.059H2.41211L48.1767 328.823H139.706Z" fill="#60594C"/>
<path d="M299.883 111.441V134.323" stroke="#2C2C2C" stroke-width="8.8235" stroke-miterlimit="10"/>
<path d="M288.441 122.882H311.324" stroke="#2C2C2C" stroke-width="8.8235" stroke-miterlimit="10"/>
<path d="M322.765 -37.2943H277V54.2348H322.765V-37.2943Z" fill="#353535"/>
<path d="M322.765 8.47021H277V54.2348H322.765V8.47021Z" fill="#353535"/>
<path opacity="0.5" d="M414.294 -37.2943H368.529V8.47025H414.294V-37.2943Z" fill="#D0872B"/>
<path opacity="0.5" d="M139.706 100H93.9414V122.882H139.706V100Z" fill="#D0872B"/>
<path d="M139.706 -37.2943H93.9414V8.47025H139.706V-37.2943Z" fill="#353535"/>
<path d="M162.588 191.53H185.47V100L162.588 122.882V191.53Z" fill="#353535"/>
<path d="M277 191.53H231.235V237.294H277V191.53Z" fill="#353535"/>
<path d="M231.235 237.294H139.706V260.177H231.235V237.294Z" fill="#353535"/>
<path d="M368.529 283.059H322.765V328.823H368.529V283.059Z" fill="#353535"/>
<path d="M414.294 237.294H277V260.177H414.294V237.294Z" fill="#353535"/>
<path d="M414.294 237.294H368.529V283.059H414.294V237.294Z" fill="#353535"/>
<path opacity="0.5" d="M345.647 100H322.765V145.765H345.647V100Z" fill="#D0872B"/>
<path opacity="0.5" d="M482.941 100H460.059V283.059H482.941V100Z" fill="#D0872B"/>
<path d="M551.589 100H505.824V191.529H551.589V100Z" fill="#353535"/>
<path d="M231.236 54.2355H93.9414V77.1178H231.236V54.2355Z" fill="#353535"/>
<path d="M345.647 100H322.765V122.882H345.647V100Z" fill="#D0872B"/>
<path opacity="0.5" d="M277 283.059H231.235V328.823H277V283.059Z" fill="#D0872B"/>
<path d="M277 145.765H231.235V191.529H277V145.765Z" fill="#353535"/>
<path d="M414.294 54.2354L368.529 8.47021H414.294V54.2354Z" fill="#353535"/>
<path d="M414.294 -14.412H391.412V8.47029H414.294V-14.412Z" fill="#D0872B"/>
<path d="M482.941 100H460.059V122.882H482.941V100Z" fill="#D0872B"/>
<path d="M345.646 54.2354V-37.2937C345.646 -49.9316 355.891 -60.1766 368.529 -60.1766H437.176V31.3525H528.706V54.2348" stroke="#575757" stroke-width="8.8235" stroke-miterlimit="10"/>
<path d="M208.353 237.294V260.177H116.823V168.647H25.2939V100" stroke="#575757" stroke-width="8.8235" stroke-miterlimit="10"/>
<path d="M265.559 248.735V271.618" stroke="#575757" stroke-width="8.8235" stroke-miterlimit="10"/>
<path d="M402.552 79.7882C404.004 73.6388 400.196 67.4766 394.046 66.0246C387.897 64.5725 381.735 68.3805 380.282 74.5299C378.83 80.6793 382.638 86.8415 388.788 88.2936C394.937 89.7457 401.099 85.9377 402.552 79.7882Z" stroke="#423D46" stroke-width="8.8235" stroke-miterlimit="10"/>
<path d="M265.24 308.616C266.692 302.466 262.884 296.304 256.735 294.852C250.585 293.4 244.423 297.208 242.971 303.357C241.519 309.507 245.327 315.669 251.476 317.121C257.626 318.573 263.788 314.765 265.24 308.616Z" stroke="#423D46" stroke-width="8.8235" stroke-miterlimit="10"/>
<path d="M196.912 105.72H191.191V140.044H196.912" stroke="#2C2C2C" stroke-width="4.4118" stroke-miterlimit="10"/>
<path d="M265.559 105.72H271.279V140.044H265.559" stroke="#2C2C2C" stroke-width="4.4118" stroke-miterlimit="10"/>
<path d="M460.059 317.382H414.294V328.823H460.059V317.382Z" fill="#423D46"/>
<path d="M93.9413 8.47021H48.1768V19.9114H93.9413V8.47021Z" fill="#423D46"/>
<path d="M290.149 40.1818C307.662 32.9272 315.979 12.8485 308.724 -4.66519C301.47 -22.1789 281.391 -30.4956 263.877 -23.241C246.364 -15.9865 238.047 4.09222 245.302 21.6059C252.556 39.1197 272.635 47.4364 290.149 40.1818Z" stroke="#60594C" stroke-width="8.8235" stroke-miterlimit="10"/>
<path d="M13.8535 -37.2943V8.47025" stroke="#423D46" stroke-width="2.2059" stroke-miterlimit="10"/>
<path d="M25.2939 -37.2943V8.47025" stroke="#423D46" stroke-width="2.2059" stroke-miterlimit="10"/>
<path d="M36.7354 -37.2943V8.47025" stroke="#423D46" stroke-width="2.2059" stroke-miterlimit="10"/>
<path d="M48.1768 -37.2943V8.47025" stroke="#423D46" stroke-width="2.2059" stroke-miterlimit="10"/>
<path d="M59.6182 -37.2943V8.47025" stroke="#423D46" stroke-width="2.2059" stroke-miterlimit="10"/>
<path d="M71.0586 -37.2943V8.47025" stroke="#423D46" stroke-width="2.2059" stroke-miterlimit="10"/>
<path d="M82.5 -37.2943V8.47025" stroke="#423D46" stroke-width="2.2059" stroke-miterlimit="10"/>
<path d="M139.706 237.294V231.573L145.427 237.294H139.706Z" fill="#353535"/>
<path d="M151.147 237.294L139.706 225.853V220.132L156.868 237.294H151.147Z" fill="#353535"/>
<path d="M162.588 237.294L139.706 214.412V208.691L168.309 237.294H162.588Z" fill="#353535"/>
<path d="M174.03 237.294L139.706 202.97V197.25L179.75 237.294H174.03Z" fill="#353535"/>
<path d="M185.471 237.294L139.706 191.53H145.427L185.471 231.573V237.294Z" fill="#353535"/>
<path d="M185.471 225.853L151.147 191.53H156.868L185.471 220.132V225.853Z" fill="#353535"/>
<path d="M185.47 214.412L162.588 191.53H168.309L185.47 208.691V214.412Z" fill="#353535"/>
<path d="M185.471 202.97L174.03 191.53H179.751L185.471 197.25V202.97Z" fill="#353535"/>
<path d="M322.765 305.941V283.059H345.647L322.765 305.941Z" fill="#60594C"/>
<path d="M414.294 122.882V100H437.176L414.294 122.882Z" fill="#60594C"/>
<path d="M93.9414 54.2354V31.3531L116.824 54.2354H93.9414Z" fill="#60594C"/>
<path d="M277 77.1177H368.53" stroke="#2C2C2C" stroke-width="2.2059" stroke-miterlimit="10"/>
<path d="M116.823 -37.2943V8.47025" stroke="#2C2C2C" stroke-width="2.2059" stroke-miterlimit="10"/>
<path d="M71.0586 19.912V145.765" stroke="#2C2C2C" stroke-width="2.2059" stroke-miterlimit="10"/>
<path d="M322.765 214.412H414.294" stroke="#2C2C2C" stroke-width="2.2059" stroke-miterlimit="10"/>
<path d="M437.17 254.452L431.449 260.172L437.17 265.892L442.89 260.172L437.17 254.452Z" fill="#2C2C2C"/>
<path d="M139.706 283.059H128.265V294.5H139.706V283.059Z" fill="#60594C"/>
<path d="M505.824 88.5588H494.383V100H505.824V88.5588Z" fill="#60594C"/>
<path d="M357.088 145.765H345.646V157.206H357.088V145.765Z" fill="#60594C"/>
<path d="M185.47 -2.97021H174.029V8.47093H185.47V-2.97021Z" fill="#464646"/>
<path d="M452.908 152.916V184.379H375.68V152.916H452.908ZM454.338 151.485H374.25V185.809H454.338V151.485Z" fill="#353535"/>
<path d="M224.085 -30.1432V47.0849H192.622V-30.1432H224.085ZM225.515 -31.5735H191.191V48.5145H225.515V-31.5735Z" fill="#353535"/>
<path d="M127.946 171.309C129.398 165.159 125.59 158.997 119.441 157.545C113.291 156.093 107.129 159.901 105.677 166.051C104.225 172.2 108.033 178.362 114.182 179.814C120.332 181.266 126.494 177.458 127.946 171.309Z" fill="#464646"/>
<path d="M25.2944 283.059H2.41211L48.1767 328.823H71.0589L25.2944 283.059Z" fill="#423D46"/>
<path d="M93.9414 277.338V197.25" stroke="#353535" stroke-width="4.4118" stroke-miterlimit="10" stroke-linecap="round" stroke-linejoin="round"/>
<path d="M59.6179 54.2355H48.1768V100H59.6179V54.2355Z" fill="#464646"/>
<path d="M437.176 77.1178H414.294V54.2355H460.059L437.176 77.1178Z" fill="#353535"/>
<path d="M277 145.765H185.471V157.206H277V145.765Z" fill="#353535"/>
<path d="M551.352 42.9412H688.646V88.7057H505.588L551.352 42.9412Z" fill="#60594C"/>
<path d="M734.412 42.9412V88.7057H825.941V134.47H917.471V88.7057H963.236V134.47L1009 88.7057V42.9412H734.412Z" fill="#60594C"/>
<path d="M551.352 134.47H597.116V226H642.881V271.765H551.352V134.47Z" fill="#60594C"/>
<path d="M1009 397.618L997.558 409.059H1009V454.823H917.47C892.199 454.823 871.705 434.329 871.705 409.059H963.234V226H1009V397.618Z" fill="#60594C"/>
<path d="M780.176 226H688.646V271.765H780.176V226Z" fill="#60594C"/>
<path d="M917.469 226H825.939V271.765H917.469V226Z" fill="#60594C"/>
<path d="M917.47 -2.82336H780.176V42.9412H917.47V-2.82336Z" fill="#464646"/>
<path d="M688.646 88.7057H825.941V134.47H917.471V226H871.706V180.235H780.176V226H734.412V134.47H688.646V88.7057Z" fill="#464646"/>
<path d="M642.882 88.7057V134.47H551.352V226H505.588V88.7057H642.882Z" fill="#464646"/>
<path d="M597.117 180.235H688.646V363.294H734.411V409.059H642.882V226H597.117V180.235Z" fill="#464646"/>
<path d="M780.176 363.294H871.706V271.765H917.47V409.059H780.176V363.294Z" fill="#464646"/>
<path d="M780.176 271.765H688.646V317.529H780.176V271.765Z" fill="#353535"/>
<path d="M597.116 317.53H642.881V271.765H551.352L597.116 317.53Z" fill="#353535"/>
<path d="M871.704 271.765H825.939V363.294H871.704V271.765Z" fill="#353535"/>
<path d="M871.705 271.765H848.822V294.647H871.705V271.765Z" fill="#353535"/>
<path d="M963.235 226H917.471V317.529H963.235V226Z" fill="#353535"/>
<path d="M963.235 88.7057H917.471V180.235H963.235V88.7057Z" fill="#353535"/>
<path d="M597.117 134.47H642.882V88.7057H688.646V180.235H597.117V134.47Z" fill="#353535"/>
<path d="M963.234 -48.588V42.9412H917.47V-2.82339H688.645V42.9412H642.881V-48.588H688.645V-25.7057L711.528 -48.588H963.234Z" fill="#353535"/>
<path d="M734.411 -2.82336H688.646V88.7057H734.411V-2.82336Z" fill="#423D46"/>
<path d="M642.881 42.9412H551.352V-2.82336H597.116C622.391 -2.82336 642.881 17.6659 642.881 42.9412Z" fill="#423D46"/>
<path d="M734.411 134.47H688.646V225.999H734.411V134.47Z" fill="#423D46"/>
<path d="M963.235 317.53H917.471V363.294H963.235V317.53Z" fill="#423D46"/>
<path d="M871.706 180.235V226H825.941V363.294H688.646V317.53H780.176V180.235H871.706Z" fill="#423D46"/>
<path d="M917.471 180.235V226H1009V363.294L1054.76 317.53V180.235H917.471Z" fill="#423D46"/>
<path d="M825.362 141.802C829.411 116.853 812.468 93.3459 787.519 89.2968C762.57 85.2477 739.062 102.191 735.013 127.14C730.964 152.089 747.907 175.596 772.856 179.645C797.805 183.694 821.312 166.752 825.362 141.802Z" fill="#353535"/>
<path d="M779.889 23.7231C781.913 11.2486 773.442 -0.505165 760.967 -2.5297C748.493 -4.55423 736.739 3.91715 734.715 16.3917C732.69 28.8662 741.161 40.62 753.636 42.6445C766.11 44.669 777.864 36.1977 779.889 23.7231Z" fill="#423D46"/>
<path d="M991.354 42.2911C1003.65 39.387 1011.27 27.0625 1008.36 14.7637C1005.46 2.46485 993.136 -5.15109 980.837 -2.24699C968.539 0.657119 960.923 12.9815 963.827 25.2804C966.731 37.5792 979.055 45.1952 991.354 42.2911Z" fill="#60594C"/>
<path d="M803.058 271.765C815.696 271.765 825.94 261.52 825.94 248.882C825.94 236.245 815.696 226 803.058 226C790.421 226 780.176 236.245 780.176 248.882C780.176 261.52 790.421 271.765 803.058 271.765Z" fill="#60594C"/>
<g opacity="0.5">
<path d="M745.853 42.9412H734.412V54.3823L745.853 42.9412Z" fill="#D0872B"/>
<path d="M734.412 77.2646L768.736 42.9412H757.294L734.412 65.8234V77.2646Z" fill="#D0872B"/>
<path d="M780.177 42.9412L734.412 88.7057H745.853L791.618 42.9412H780.177Z" fill="#D0872B"/>
<path d="M803.059 42.9412L757.295 88.7057H768.736L814.501 42.9412H803.059Z" fill="#D0872B"/>
<path d="M825.94 42.9412L780.176 88.7057H791.617L825.94 54.3823V42.9412Z" fill="#D0872B"/>
<path d="M825.941 65.8235L803.059 88.7057H814.5L825.941 77.2646V65.8235Z" fill="#D0872B"/>
</g>
<path d="M803.059 237.441V260.323" stroke="#2C2C2C" stroke-width="8.8235" stroke-miterlimit="10"/>
<path d="M791.617 248.882H814.499" stroke="#2C2C2C" stroke-width="8.8235" stroke-miterlimit="10"/>
<path d="M825.94 88.7057H780.176V180.235H825.94V88.7057Z" fill="#353535"/>
<path d="M825.94 134.47H780.176V180.235H825.94V134.47Z" fill="#353535"/>
<path d="M917.47 -2.82336H780.176V20.0589H917.47V-2.82336Z" fill="#353535"/>
<path opacity="0.5" d="M917.47 88.7057H871.705V134.47H917.47V88.7057Z" fill="#D0872B"/>
<path opacity="0.5" d="M642.882 226H597.117V248.882H642.882V226Z" fill="#D0872B"/>
<path d="M642.882 88.7057H597.117V134.47H642.882V88.7057Z" fill="#353535"/>
<path d="M665.764 317.53H688.646V226L665.764 248.882V317.53Z" fill="#353535"/>
<path d="M780.177 317.53H734.412V363.294H780.177V317.53Z" fill="#353535"/>
<path opacity="0.5" d="M848.822 226H825.939V271.765H848.822V226Z" fill="#D0872B"/>
<path opacity="0.5" d="M986.117 226H963.234V409.059H986.117V226Z" fill="#D0872B"/>
<path d="M734.411 180.235H597.117V203.118H734.411V180.235Z" fill="#353535"/>
<path d="M848.822 226H825.939V248.882H848.822V226Z" fill="#D0872B"/>
<path d="M780.177 271.765H734.412V317.529H780.177V271.765Z" fill="#353535"/>
<path d="M917.47 180.235L871.705 134.47H917.47V180.235Z" fill="#353535"/>
<path d="M917.47 111.588H894.588V134.47H917.47V111.588Z" fill="#D0872B"/>
<path d="M986.117 226H963.234V248.882H986.117V226Z" fill="#D0872B"/>
<path d="M848.822 180.235V88.7064C848.822 76.0684 859.067 65.8235 871.705 65.8235H940.352V157.353H1031.88V180.235" stroke="#575757" stroke-width="8.8235" stroke-miterlimit="10"/>
<path d="M711.53 363.294V386.177H620V294.647H528.471V226" stroke="#575757" stroke-width="8.8235" stroke-miterlimit="10"/>
<path d="M517.029 -2.82336H505.588V42.9412H517.029V-2.82336Z" fill="#423D46"/>
<path d="M654.322 100.147H677.205" stroke="#575757" stroke-width="8.8235" stroke-miterlimit="10"/>
<path d="M905.728 205.788C907.18 199.639 903.372 193.477 897.223 192.025C891.074 190.573 884.911 194.38 883.459 200.53C882.007 206.679 885.815 212.842 891.965 214.294C898.114 215.746 904.276 211.938 905.728 205.788Z" stroke="#423D46" stroke-width="8.8235" stroke-miterlimit="10"/>
<path d="M700.088 20.0588V8.61768H711.529L700.088 20.0588Z" fill="#60594C"/>
<path d="M700.088 231.72H694.367V266.044H700.088" stroke="#2C2C2C" stroke-width="4.4118" stroke-miterlimit="10"/>
<path d="M768.734 231.72H774.455V266.044H768.734" stroke="#2C2C2C" stroke-width="4.4118" stroke-miterlimit="10"/>
<path d="M597.116 134.47H551.352V145.911H597.116V134.47Z" fill="#423D46"/>
<path d="M793.324 166.182C810.838 158.927 819.155 138.849 811.9 121.335C804.646 103.821 784.567 95.5044 767.053 102.759C749.539 110.014 741.223 130.092 748.477 147.606C755.732 165.12 775.811 173.436 793.324 166.182Z" stroke="#60594C" stroke-width="8.8235" stroke-miterlimit="10"/>
<path d="M517.029 88.7057V134.47" stroke="#423D46" stroke-width="2.2059" stroke-miterlimit="10"/>
<path d="M528.471 88.7057V134.47" stroke="#423D46" stroke-width="2.2059" stroke-miterlimit="10"/>
<path d="M539.912 88.7057V134.47" stroke="#423D46" stroke-width="2.2059" stroke-miterlimit="10"/>
<path d="M551.352 88.7057V134.47" stroke="#423D46" stroke-width="2.2059" stroke-miterlimit="10"/>
<path d="M562.793 88.7057V134.47" stroke="#423D46" stroke-width="2.2059" stroke-miterlimit="10"/>
<path d="M574.234 88.7057V134.47" stroke="#423D46" stroke-width="2.2059" stroke-miterlimit="10"/>
<path d="M585.676 88.7057V134.47" stroke="#423D46" stroke-width="2.2059" stroke-miterlimit="10"/>
<path d="M505.588 100.147H597.117" stroke="#423D46" stroke-width="2.2059" stroke-miterlimit="10"/>
<path d="M505.588 111.588H597.117" stroke="#423D46" stroke-width="2.2059" stroke-miterlimit="10"/>
<path d="M505.588 123.03H597.117" stroke="#423D46" stroke-width="2.2059" stroke-miterlimit="10"/>
<path d="M688.645 363.294L642.881 317.53H648.602L688.645 357.573V363.294Z" fill="#353535"/>
<path d="M688.646 351.853L654.322 317.53H660.043L688.646 346.132V351.853Z" fill="#353535"/>
<path d="M688.646 340.412L665.764 317.53H671.485L688.646 334.691V340.412Z" fill="#353535"/>
<path d="M688.646 328.97L677.205 317.53H682.925L688.646 323.25V328.97Z" fill="#353535"/>
<path d="M688.646 42.9411V20.0588L665.764 42.9411H688.646Z" fill="#423D46"/>
<path d="M917.471 248.882V226H940.353L917.471 248.882Z" fill="#60594C"/>
<path d="M597.117 180.235V157.353L619.999 180.235H597.117Z" fill="#60594C"/>
<path d="M780.176 203.118H871.706" stroke="#2C2C2C" stroke-width="2.2059" stroke-miterlimit="10"/>
<path d="M940.352 42.9412V-48.588" stroke="#2C2C2C" stroke-width="2.2059" stroke-miterlimit="10"/>
<path d="M620 88.7057V134.47" stroke="#2C2C2C" stroke-width="2.2059" stroke-miterlimit="10"/>
<path d="M574.234 145.912V271.765" stroke="#2C2C2C" stroke-width="2.2059" stroke-miterlimit="10"/>
<path d="M585.369 22.7056C586.821 16.5562 583.013 10.394 576.864 8.94193C570.714 7.48987 564.552 11.2978 563.1 17.4473C561.648 23.5967 565.456 29.7589 571.605 31.211C577.755 32.663 583.917 28.855 585.369 22.7056Z" fill="#353535"/>
<path d="M1009 214.559H997.559V226H1009V214.559Z" fill="#60594C"/>
<path d="M860.263 271.765H848.822V283.206H860.263V271.765Z" fill="#60594C"/>
<path d="M688.646 123.03H677.205V134.471H688.646V123.03Z" fill="#464646"/>
<path d="M956.084 278.916V310.379H878.856V278.916H956.084ZM957.514 277.485H877.426V311.809H957.514V277.485Z" fill="#353535"/>
<path d="M727.26 95.8568V173.085H695.797V95.8568H727.26ZM728.691 94.4265H694.367V174.514H728.691V94.4265Z" fill="#353535"/>
<path d="M631.121 297.309C632.573 291.159 628.765 284.997 622.616 283.545C616.466 282.093 610.304 285.901 608.852 292.051C607.4 298.2 611.208 304.362 617.357 305.814C623.507 307.266 629.669 303.458 631.121 297.309Z" fill="#464646"/>
<path d="M562.793 180.235H551.352V226H562.793V180.235Z" fill="#464646"/>
<path d="M940.353 203.118H917.471V180.235H963.235L940.353 203.118Z" fill="#353535"/>
<path d="M642.882 88.7057H597.117V100.147H642.882V88.7057Z" fill="#353535"/>
<path d="M780.176 271.765H688.646V283.206H780.176V271.765Z" fill="#353535"/>
</g>
<defs>
<clipPath id="clip0_2191_58917">
<rect width="1000" height="320" fill="white"/>
</clipPath>
</defs>
</svg>
